<svg xmlns="http://www.w3.org/2000/svg" viewBox="0 0 120 120" role="img" aria-label="S">
  <defs>
    <linearGradient id="g" x1="0" y1="0" x2="1" y2="1">
      <stop offset="0%" stop-color="#0f766e" />
      <stop offset="100%" stop-color="#155e75" />
    </linearGradient>
  </defs>
  <rect width="120" height="120" rx="24" fill="url(#g)" />
  <path
    d="M31 83c7 6 16 9 27 9 19 0 31-10 31-25 0-12-8-18-24-22l-7-2c-8-2-12-5-12-10 0-6 5-10 14-10 8 0 14 2 20 7l7-11c-8-6-17-9-27-9-18 0-30 10-30 24 0 12 8 19 24 23l8 2c8 2 11 5 11 10 0 6-5 10-14 10-9 0-17-3-23-8z"
    fill="#fff"
  />
</svg>
